HIERARCHY
ROOT Hips
{
	OFFSET 0.000000 87.230942 0.000000
	CHANNELS 6 Xposition Yposition Zposition Xrotation Yrotation Zrotation
	JOINT Pelvis
	{
		OFFSET 0.000000 0.000000 0.000000
		CHANNELS 3 Xrotation Yrotation Zrotation
		JOINT LeftUpLeg
		{
			OFFSET 12.017000 -9.376404 -2.439400
			CHANNELS 3 Xrotation Yrotation Zrotation
			JOINT LeftLeg
			{
				OFFSET -0.007312 -32.846973 2.110600
				CHANNELS 3 Xrotation Yrotation Zrotation
				JOINT LeftFoot
				{
					OFFSET 0.007312 -32.065170 -0.570400
					CHANNELS 3 Xrotation Yrotation Zrotation
					JOINT LeftToeBase
					{
						OFFSET 0.728300 -11.045900 13.180700
						CHANNELS 3 Xrotation Yrotation Zrotation
						End Site
						{
							OFFSET 0.000000 17.212589 0.000000
						}
					}
				}
				JOINT LeftPantLeg
				{
					OFFSET 0.002788 -16.709013 -3.143600
					CHANNELS 3 Xrotation Yrotation Zrotation
					End Site
					{
						OFFSET -0.605125 24.528742 0.000000
					}
				}
			}
			JOINT Left_Butt
			{
				OFFSET -6.630234 1.326584 -3.183700
				CHANNELS 3 Xrotation Yrotation Zrotation
				End Site
				{
					OFFSET -0.498041 20.188049 0.000000
				}
			}
		}
		JOINT RightUpLeg
		{
			OFFSET -11.717000 -9.376404 -2.439400
			CHANNELS 3 Xrotation Yrotation Zrotation
			JOINT RightLeg
			{
				OFFSET -0.003241 -32.846912 2.110600
				CHANNELS 3 Xrotation Yrotation Zrotation
				JOINT RightFoot
				{
					OFFSET 0.003241 -32.065136 -0.570500
					CHANNELS 3 Xrotation Yrotation Zrotation
					JOINT RightToeBase
					{
						OFFSET -0.728300 -11.045901 13.180700
						CHANNELS 3 Xrotation Yrotation Zrotation
						End Site
						{
							OFFSET 0.000000 17.212593 0.000000
						}
					}
				}
				JOINT RightPantLeg
				{
					OFFSET 0.008142 -16.708982 -3.143700
					CHANNELS 3 Xrotation Yrotation Zrotation
					End Site
					{
						OFFSET 0.605088 24.528715 0.000000
					}
				}
			}
			JOINT Right_Butt
			{
				OFFSET 6.630732 1.326584 -3.183700
				CHANNELS 3 Xrotation Yrotation Zrotation
				End Site
				{
					OFFSET 0.498015 20.188240 0.000000
				}
			}
		}
	}
	JOINT Spine
	{
		OFFSET -0.062400 7.848404 3.918300
		CHANNELS 3 Xrotation Yrotation Zrotation
		JOINT Spine1
		{
			OFFSET -0.072800 11.422302 0.713400
			CHANNELS 3 Xrotation Yrotation Zrotation
			JOINT Spine2
			{
				OFFSET -0.083200 13.054001 -1.931600
				CHANNELS 3 Xrotation Yrotation Zrotation
				JOINT Neck
				{
					OFFSET -0.092200 14.121796 -5.138800
					CHANNELS 3 Xrotation Yrotation Zrotation
					JOINT Head
					{
						OFFSET 0.000200 10.447403 -0.842000
						CHANNELS 3 Xrotation Yrotation Zrotation
						JOINT Visor
						{
							OFFSET 0.457100 25.671204 16.550400
							CHANNELS 3 Xrotation Yrotation Zrotation
							End Site
							{
								OFFSET 0.000000 26.061493 0.000000
							}
						}
						JOINT HairMidA
						{
							OFFSET 0.459400 31.585403 8.437400
							CHANNELS 3 Xrotation Yrotation Zrotation
							End Site
							{
								OFFSET 0.000000 26.061493 0.000000
							}
						}
						JOINT HairMidB
						{
							OFFSET 0.464000 33.309204 -8.389700
							CHANNELS 3 Xrotation Yrotation Zrotation
							End Site
							{
								OFFSET 0.000000 26.061493 0.000000
							}
						}
						JOINT HairMidC
						{
							OFFSET 0.466600 27.991196 -17.375099
							CHANNELS 3 Xrotation Yrotation Zrotation
							End Site
							{
								OFFSET 0.000000 26.061493 0.000000
							}
						}
						JOINT HairMidD
						{
							OFFSET 0.467700 17.888092 -21.169500
							CHANNELS 3 Xrotation Yrotation Zrotation
							End Site
							{
								OFFSET 0.000000 26.061493 0.000000
							}
						}
						JOINT HairMidE
						{
							OFFSET 5.325700 3.514603 -14.369699
							CHANNELS 3 Xrotation Yrotation Zrotation
							End Site
							{
								OFFSET 0.000000 26.061493 0.000000
							}
						}
						JOINT HairMidF
						{
							OFFSET -4.394100 3.514603 -14.372400
							CHANNELS 3 Xrotation Yrotation Zrotation
							End Site
							{
								OFFSET 0.000000 26.061493 0.000000
							}
						}
						JOINT HairLeftA
						{
							OFFSET 15.319900 25.746506 2.623300
							CHANNELS 3 Xrotation Yrotation Zrotation
							End Site
							{
								OFFSET 0.000000 26.061493 0.000000
							}
						}
						JOINT HairLeftB
						{
							OFFSET 12.619500 29.289398 -8.731499
							CHANNELS 3 Xrotation Yrotation Zrotation
							End Site
							{
								OFFSET 0.000000 26.061493 0.000000
							}
						}
						JOINT HairLeftC
						{
							OFFSET 15.714800 15.959900 2.909800
							CHANNELS 3 Xrotation Yrotation Zrotation
							End Site
							{
								OFFSET 0.000000 26.061493 0.000000
							}
						}
						JOINT HairLeftD
						{
							OFFSET 16.101700 18.437408 -7.553200
							CHANNELS 3 Xrotation Yrotation Zrotation
							End Site
							{
								OFFSET 0.000000 26.061493 0.000000
							}
						}
						JOINT HairLeftE
						{
							OFFSET 9.731900 17.915009 -18.316799
							CHANNELS 3 Xrotation Yrotation Zrotation
							End Site
							{
								OFFSET 0.000000 26.061493 0.000000
							}
						}
						JOINT HairLeftF
						{
							OFFSET 11.204300 4.953598 -9.668100
							CHANNELS 3 Xrotation Yrotation Zrotation
							End Site
							{
								OFFSET 0.000000 26.061493 0.000000
							}
						}
						JOINT HairRightA
						{
							OFFSET -14.397900 25.746307 2.615100
							CHANNELS 3 Xrotation Yrotation Zrotation
							End Site
							{
								OFFSET 0.000000 26.061493 0.000000
							}
						}
						JOINT HairRightB
						{
							OFFSET -11.691200 29.289200 -8.738199
							CHANNELS 3 Xrotation Yrotation Zrotation
							End Site
							{
								OFFSET 0.000000 26.061493 0.000000
							}
						}
						JOINT HairRightC
						{
							OFFSET -14.792900 15.959702 2.901400
							CHANNELS 3 Xrotation Yrotation Zrotation
							End Site
							{
								OFFSET 0.000000 26.061493 0.000000
							}
						}
						JOINT HairRightD
						{
							OFFSET -15.174000 18.437195 -7.561900
							CHANNELS 3 Xrotation Yrotation Zrotation
							End Site
							{
								OFFSET 0.000000 26.061493 0.000000
							}
						}
						JOINT HairRightE
						{
							OFFSET -8.798200 17.914902 -18.322001
							CHANNELS 3 Xrotation Yrotation Zrotation
							End Site
							{
								OFFSET 0.000000 26.061493 0.000000
							}
						}
						JOINT HairRightF
						{
							OFFSET -10.275200 4.953506 -9.674099
							CHANNELS 3 Xrotation Yrotation Zrotation
							End Site
							{
								OFFSET 0.000000 26.061493 0.000000
							}
						}
					}
				}
				JOINT LeftShoulder
				{
					OFFSET 5.133500 7.341202 -1.867600
					CHANNELS 3 Xrotation Yrotation Zrotation
					JOINT LeftArm
					{
						OFFSET 8.072663 0.936867 -2.176600
						CHANNELS 3 Xrotation Yrotation Zrotation
						JOINT LeftForeArm
						{
							OFFSET 31.271999 0.000000 0.000000
							CHANNELS 3 Xrotation Yrotation Zrotation
							JOINT LeftHand
							{
								OFFSET 31.771030 0.000000 0.000000
								CHANNELS 3 Xrotation Yrotation Zrotation
								JOINT LeftHandThumb1
								{
									OFFSET 2.886520 -2.557846 4.416640
									CHANNELS 3 Xrotation Yrotation Zrotation
									JOINT LeftHandThumb2
									{
										OFFSET 2.371025 -1.368912 1.368911
										CHANNELS 3 Xrotation Yrotation Zrotation
										JOINT LeftHandThumb3
										{
											OFFSET 2.243378 -1.295212 1.295213
											CHANNELS 3 Xrotation Yrotation Zrotation
											End Site
											{
												OFFSET -0.332611 2.876945 0.020015
											}
										}
									}
								}
								JOINT LeftHandIndex1
								{
									OFFSET 8.568985 -0.641945 3.119977
									CHANNELS 3 Xrotation Yrotation Zrotation
									JOINT LeftHandIndex2
									{
										OFFSET 3.348503 0.000000 0.000000
										CHANNELS 3 Xrotation Yrotation Zrotation
										JOINT LeftHandIndex3
										{
											OFFSET 3.314552 0.000000 0.000000
											CHANNELS 3 Xrotation Yrotation Zrotation
											End Site
											{
												OFFSET -1.032898 3.075485 0.678796
											}
										}
									}
								}
								JOINT LeftHandMiddle1
								{
									OFFSET 8.124603 0.000000 0.000000
									CHANNELS 3 Xrotation Yrotation Zrotation
									JOINT LeftHandMiddle2
									{
										OFFSET 4.166275 0.000000 0.000000
										CHANNELS 3 Xrotation Yrotation Zrotation
										JOINT LeftHandMiddle3
										{
											OFFSET 3.018135 0.000000 0.000000
											CHANNELS 3 Xrotation Yrotation Zrotation
											End Site
											{
												OFFSET -1.032700 2.767982 0.617226
											}
										}
									}
								}
								JOINT LeftHandRing1
								{
									OFFSET 8.571686 -0.031357 -2.884048
									CHANNELS 3 Xrotation Yrotation Zrotation
									JOINT LeftHandRing2
									{
										OFFSET 3.671181 0.000000 0.000000
										CHANNELS 3 Xrotation Yrotation Zrotation
										JOINT LeftHandRing3
										{
											OFFSET 2.728851 0.000000 0.000000
											CHANNELS 3 Xrotation Yrotation Zrotation
											End Site
											{
												OFFSET -0.815796 2.539223 0.577389
											}
										}
									}
								}
								JOINT LeftHandPinky1
								{
									OFFSET 7.854515 -0.675232 -5.213020
									CHANNELS 3 Xrotation Yrotation Zrotation
									JOINT LeftHandPinky2
									{
										OFFSET 3.068596 0.000000 0.000000
										CHANNELS 3 Xrotation Yrotation Zrotation
										JOINT LeftHandPinky3
										{
											OFFSET 2.396042 0.000000 0.000000
											CHANNELS 3 Xrotation Yrotation Zrotation
											End Site
											{
												OFFSET -0.524597 2.267998 0.567429
											}
										}
									}
								}
							}
							JOINT LeftSleeve
							{
								OFFSET 19.684509 -0.200119 0.476146
								CHANNELS 3 Xrotation Yrotation Zrotation
								End Site
								{
									OFFSET -0.031017 25.731133 -0.002868
								}
							}
						}
					}
				}
				JOINT RightShoulder
				{
					OFFSET -4.395900 7.341202 -1.870200
					CHANNELS 3 Xrotation Yrotation Zrotation
					JOINT RightArm
					{
						OFFSET -8.071453 0.936867 -2.181100
						CHANNELS 3 Xrotation Yrotation Zrotation
						JOINT RightForeArm
						{
							OFFSET -31.272011 0.000000 0.000000
							CHANNELS 3 Xrotation Yrotation Zrotation
							JOINT RightHand
							{
								OFFSET -31.771019 0.000000 0.000000
								CHANNELS 3 Xrotation Yrotation Zrotation
								JOINT RightHandThumb1
								{
									OFFSET -2.886520 -2.557808 4.416626
									CHANNELS 3 Xrotation Yrotation Zrotation
									JOINT RightHandThumb2
									{
										OFFSET -2.371056 -1.368927 1.368928
										CHANNELS 3 Xrotation Yrotation Zrotation
										JOINT RightHandThumb3
										{
											OFFSET -2.243362 -1.295204 1.295206
											CHANNELS 3 Xrotation Yrotation Zrotation
											End Site
											{
												OFFSET 0.332642 2.876938 0.020047
											}
										}
									}
								}
								JOINT RightHandIndex1
								{
									OFFSET -8.568993 -0.641953 3.120017
									CHANNELS 3 Xrotation Yrotation Zrotation
									JOINT RightHandIndex2
									{
										OFFSET -3.348518 0.000000 0.000000
										CHANNELS 3 Xrotation Yrotation Zrotation
										JOINT RightHandIndex3
										{
											OFFSET -3.314552 0.000000 0.000000
											CHANNELS 3 Xrotation Yrotation Zrotation
											End Site
											{
												OFFSET 1.032898 3.075478 0.678804
											}
										}
									}
								}
								JOINT RightHandMiddle1
								{
									OFFSET -8.124588 0.000000 0.000000
									CHANNELS 3 Xrotation Yrotation Zrotation
									JOINT RightHandMiddle2
									{
										OFFSET -4.166275 0.000000 0.000000
										CHANNELS 3 Xrotation Yrotation Zrotation
										JOINT RightHandMiddle3
										{
											OFFSET -3.018097 0.000000 0.000000
											CHANNELS 3 Xrotation Yrotation Zrotation
											End Site
											{
												OFFSET 1.032700 2.767937 0.617197
											}
										}
									}
								}
								JOINT RightHandRing1
								{
									OFFSET -8.571747 -0.031349 -2.884061
									CHANNELS 3 Xrotation Yrotation Zrotation
									JOINT RightHandRing2
									{
										OFFSET -3.671204 0.000000 0.000000
										CHANNELS 3 Xrotation Yrotation Zrotation
										JOINT RightHandRing3
										{
											OFFSET -2.728874 0.000000 0.000000
											CHANNELS 3 Xrotation Yrotation Zrotation
											End Site
											{
												OFFSET 0.815804 2.539261 0.577413
											}
										}
									}
								}
								JOINT RightHandPinky1
								{
									OFFSET -7.854561 -0.675247 -5.212970
									CHANNELS 3 Xrotation Yrotation Zrotation
									JOINT RightHandPinky2
									{
										OFFSET -3.068550 0.000000 0.000000
										CHANNELS 3 Xrotation Yrotation Zrotation
										JOINT RightHandPinky3
										{
											OFFSET -2.395981 0.000000 0.000000
											CHANNELS 3 Xrotation Yrotation Zrotation
											End Site
											{
												OFFSET 0.524605 2.267952 0.567413
											}
										}
									}
								}
							}
							JOINT RightSleeve
							{
								OFFSET -19.684753 -0.200165 0.476065
								CHANNELS 3 Xrotation Yrotation Zrotation
								End Site
								{
									OFFSET 0.031342 25.731255 -0.002917
								}
							}
						}
					}
				}
				JOINT Hood
				{
					OFFSET 0.369700 14.447800 -5.317800
					CHANNELS 3 Xrotation Yrotation Zrotation
					JOINT Hood1
					{
						OFFSET 0.001700 -5.553802 -5.895100
						CHANNELS 3 Xrotation Yrotation Zrotation
						JOINT Hood2
						{
							OFFSET -0.000200 -8.380501 0.763600
							CHANNELS 3 Xrotation Yrotation Zrotation
							End Site
							{
								OFFSET 0.000000 8.415215 0.000000
							}
						}
					}
				}
				JOINT Left_Breast
				{
					OFFSET 5.682500 3.120102 3.188800
					CHANNELS 3 Xrotation Yrotation Zrotation
					End Site
					{
						OFFSET 0.000000 10.528564 0.000000
					}
				}
				JOINT Right_Breast
				{
					OFFSET -4.947600 3.120102 3.185900
					CHANNELS 3 Xrotation Yrotation Zrotation
					End Site
					{
						OFFSET 0.000000 10.528564 0.000000
					}
				}
				JOINT Whistle
				{
					OFFSET 0.368200 11.471298 0.095400
					CHANNELS 3 Xrotation Yrotation Zrotation
					JOINT Whistle1
					{
						OFFSET -0.002000 -6.349899 7.479800
						CHANNELS 3 Xrotation Yrotation Zrotation
						JOINT Whistle2
						{
							OFFSET -0.001300 -8.217598 4.717600
							CHANNELS 3 Xrotation Yrotation Zrotation
							End Site
							{
								OFFSET 0.000000 9.475479 0.000000
							}
						}
					}
				}
			}
		}
		JOINT Belly
		{
			OFFSET 0.212400 1.593002 3.163700
			CHANNELS 3 Xrotation Yrotation Zrotation
			End Site
			{
				OFFSET 0.000000 7.496635 0.000000
			}
		}
	}
	JOINT FitGrandmaFacialAnim_Joint
	{
		OFFSET 1.150000 -86.211197 -1.220100
		CHANNELS 3 Xrotation Yrotation Zrotation
		End Site
		{
			OFFSET 0.000000 31.666618 0.000000
		}
	}
}
MOTION
Frames: 4
Frame Time: 0.016667
-0.168544 83.527618 -0.882153 -24.516496 -2.582275 -1.291582 -0.000001 0.000000 -0.000000 8.978104 20.512346 6.305844 35.450673 5.309356 -9.976182 -24.190109 29.262726 8.320770 0.000000 0.000001 -0.000000 0.000000 0.000002 -0.000001 0.000001 -0.000001 0.000000 24.593710 -15.192221 -0.618708 29.122619 -10.503837 0.284685 -25.598454 -28.507756 1.824351 0.000000 0.000002 -0.000001 -0.000003 -0.000001 0.000001 0.000000 -0.000001 -0.000000 11.158007 -4.699062 -1.086043 3.545656 -2.400649 -0.151373 3.557024 -2.388378 -0.108336 1.551789 0.634302 -1.308391 -6.938530 0.762139 3.865455 -0.000001 -0.000001 0.000000 -0.000001 -0.000001 0.000000 -0.000001 -0.000001 0.000000 -0.000001 -0.000001 0.000000 -0.000001 -0.000001 0.000000 -0.000001 -0.000001 0.000000 -0.000001 -0.000001 0.000000 -0.000001 -0.000001 0.000000 -0.000001 -0.000001 0.000000 -0.000001 -0.000001 0.000000 -0.000001 -0.000001 0.000000 -0.000001 -0.000001 0.000000 -0.000001 -0.000001 0.000000 -0.000001 -0.000001 0.000000 -0.000001 -0.000001 0.000000 -0.000001 -0.000001 0.000000 -0.000001 -0.000001 0.000000 -0.000001 -0.000001 0.000000 -0.000001 -0.000001 0.000000 0.445073 -15.488173 -11.025448 -20.285395 3.054794 -36.773540 -0.000001 -67.201938 0.000032 -41.639972 -11.471773 -7.743326 -22.783322 -14.798008 12.273496 3.104719 10.435615 14.815850 0.000001 -0.000000 0.000002 1.968598 -2.875758 26.071501 3.265028 5.250332 -63.730412 0.000000 0.000001 -0.000001 -0.918345 3.905217 20.820676 2.974874 5.097482 -60.513816 -0.000002 0.000000 0.000002 -6.190613 13.399334 27.815722 3.764263 5.467514 -69.071927 0.000001 0.000001 -0.000005 -10.204795 21.361480 28.797823 0.278398 1.786137 -17.716445 -0.000001 -0.000001 0.000001 0.000003 -0.000001 -0.000000 0.064830 14.691498 14.953775 -12.069990 -6.923746 61.446629 0.000015 39.415437 -0.000011 -1.892006 -4.118455 24.314816 -20.073106 16.089484 -24.921340 8.794305 -40.952756 -1.386090 -0.000001 0.000001 -0.000001 1.063102 -5.182540 38.505540 3.100522 -4.389854 70.453032 0.000004 -0.000002 0.000003 2.946400 -6.593245 70.499874 0.642396 -2.362172 30.423145 0.000003 0.000000 -0.000003 5.948322 -7.199761 80.598582 0.322678 -1.704980 21.432113 -0.000001 -0.000001 -0.000001 1.932516 -22.479150 97.263321 1.111360 -3.021257 40.383999 0.000001 -0.000000 0.000001 0.000000 -0.000000 -0.000000 -0.000000 -0.000000 -0.000000 -0.000000 -0.000000 -0.000000 -0.000000 -0.000000 -0.000000 -0.000000 -0.000000 -0.000000 -0.000000 -0.000000 -0.000000 -0.000000 -0.000000 -0.000000 -0.000000 -0.000000 -0.000000 -0.000000 -0.000000 -0.000000 -0.000001 0.000001 0.000000 -0.000001 0.000000 -0.000000 
-0.501446 83.521927 -0.693142 -24.540052 -3.546799 -1.740703 0.000001 0.000000 -0.000000 7.800207 20.970457 7.388804 37.496765 5.389770 -9.913831 -23.339211 29.385813 7.499239 -0.000000 0.000002 -0.000000 -0.000000 0.000003 -0.000001 0.000000 -0.000001 -0.000000 24.707125 -14.810287 -0.460368 29.060030 -10.345442 0.368479 -25.885859 -27.948501 1.493150 -0.000000 0.000000 -0.000000 -0.000000 0.000001 0.000000 0.000000 0.000001 -0.000000 11.158601 -4.702184 -1.078936 3.545656 -2.400649 -0.151373 3.557025 -2.388378 -0.108336 1.569039 0.632571 -1.281186 -6.886420 0.740092 3.939076 -0.000000 -0.000000 -0.000000 -0.000000 -0.000000 -0.000000 -0.000000 -0.000000 -0.000000 -0.000000 -0.000000 -0.000000 -0.000000 -0.000000 -0.000000 -0.000000 -0.000000 -0.000000 -0.000000 -0.000000 -0.000000 -0.000000 -0.000000 -0.000000 -0.000000 -0.000000 -0.000000 -0.000000 -0.000000 -0.000000 -0.000000 -0.000000 -0.000000 -0.000000 -0.000000 -0.000000 -0.000000 -0.000000 -0.000000 -0.000000 -0.000000 -0.000000 -0.000000 -0.000000 -0.000000 -0.000000 -0.000000 -0.000000 -0.000000 -0.000000 -0.000000 -0.000000 -0.000000 -0.000000 -0.000000 -0.000000 -0.000000 0.453289 -15.502115 -10.972478 -20.293308 3.094327 -36.833639 -0.000005 -67.199335 -0.000002 -41.623688 -11.480566 -7.750257 -22.783320 -14.798008 12.273495 3.108326 10.435741 14.812920 -0.000003 0.000002 0.000001 1.971999 -2.886992 26.060452 3.263318 5.249481 -63.711718 0.000001 0.000001 -0.000003 -0.911540 3.888567 20.812138 2.975745 5.097953 -60.523604 -0.000001 0.000001 0.000006 -6.204509 13.442056 27.794067 3.753716 5.463507 -68.961176 -0.000000 0.000001 0.000000 -10.221060 21.393273 28.797345 0.277946 1.784779 -17.702303 0.000001 -0.000000 -0.000000 0.000002 0.000001 -0.000000 0.059577 14.649711 15.003830 -12.024883 -6.807494 61.377637 -0.000015 39.437014 0.000028 -1.973390 -4.141930 24.291498 -20.073106 16.089484 -24.921344 8.794307 -40.952756 -1.386094 0.000000 -0.000003 -0.000000 1.073325 -5.197491 38.626113 3.094992 -4.387909 70.380769 -0.000003 0.000001 0.000002 2.960344 -6.598219 70.519736 0.642400 -2.362200 30.423582 -0.000002 0.000000 0.000000 5.942379 -7.197753 80.626702 0.322966 -1.705686 21.441511 0.000003 -0.000000 0.000001 1.935756 -22.481233 97.290232 1.111357 -3.021257 40.383992 -0.000002 -0.000001 -0.000000 -0.000001 -0.000000 -0.000000 0.000000 0.000001 0.000000 0.000000 0.000001 0.000000 0.000000 0.000001 0.000000 0.000000 0.000001 0.000000 0.000000 0.000001 0.000000 -0.000000 0.000001 0.000000 -0.000000 0.000001 -0.000000 -0.000000 0.000001 -0.000000 -0.000001 0.000001 -0.000000 0.000001 0.000000 -0.000000 
-0.813010 83.516403 -0.527172 -24.571283 -4.516929 -2.194222 0.000001 -0.000001 -0.000000 6.408573 21.388437 8.559542 39.765057 5.450556 -9.849409 -22.309934 29.471115 6.951913 0.000000 -0.000001 -0.000001 0.000002 -0.000000 0.000001 -0.000002 0.000001 0.000001 24.781262 -14.436961 -0.324641 29.024339 -10.250706 0.436737 -26.127304 -27.319672 1.224453 0.000000 0.000003 0.000000 -0.000000 -0.000002 0.000000 0.000000 -0.000003 -0.000000 11.159246 -4.705728 -1.071168 3.545656 -2.400650 -0.151372 3.557023 -2.388380 -0.108336 1.594335 0.627994 -1.252938 -6.802724 0.692375 4.007736 0.000000 0.000000 -0.000000 0.000000 0.000000 -0.000000 0.000000 0.000000 -0.000000 0.000000 0.000000 -0.000000 0.000000 0.000000 -0.000000 0.000000 0.000000 -0.000000 0.000000 0.000000 -0.000000 0.000000 0.000000 -0.000000 0.000000 0.000000 -0.000000 0.000000 0.000000 -0.000000 0.000000 0.000000 -0.000000 0.000000 0.000000 -0.000000 0.000000 0.000000 -0.000000 0.000000 0.000000 -0.000000 0.000000 0.000000 -0.000000 0.000000 0.000000 -0.000000 0.000000 0.000000 -0.000000 0.000000 0.000000 -0.000000 0.000000 0.000000 -0.000000 0.460828 -15.508023 -10.923491 -20.284308 3.109532 -36.878923 -0.000044 -67.192901 -0.000051 -41.627056 -11.498688 -7.746690 -22.783319 -14.798006 12.273497 3.113750 10.435888 14.808468 -0.000005 0.000002 0.000001 1.969726 -2.895156 26.045174 3.259404 5.247563 -63.669056 0.000000 0.000001 0.000003 -0.905928 3.873780 20.810164 2.976638 5.098474 -60.533631 -0.000001 0.000002 0.000001 -6.207492 13.459987 27.775159 3.749440 5.461843 -68.916247 -0.000000 0.000000 -0.000001 -10.231323 21.412749 28.801456 0.278411 1.786169 -17.716701 -0.000000 -0.000001 -0.000000 -0.000001 0.000001 -0.000000 0.056287 14.633617 15.032350 -11.965735 -6.692806 61.317163 -0.000028 39.454062 0.000044 -2.087393 -4.155304 24.254567 -20.073105 16.089489 -24.921345 8.794306 -40.952756 -1.386091 0.000000 -0.000003 -0.000001 1.083641 -5.208372 38.767922 3.091865 -4.386791 70.339986 -0.000002 -0.000001 0.000003 2.965371 -6.600076 70.543601 0.642268 -2.361953 30.420126 0.000006 -0.000002 -0.000000 5.939536 -7.195794 80.668660 0.323123 -1.706112 21.447074 -0.000001 -0.000001 -0.000001 1.933427 -22.482345 97.298230 1.111359 -3.021259 40.383995 0.000001 0.000001 0.000003 -0.000000 -0.000002 -0.000001 -0.000000 0.000001 0.000000 -0.000000 0.000001 0.000000 -0.000000 0.000001 0.000000 -0.000000 0.000001 0.000000 -0.000000 0.000001 0.000000 -0.000000 0.000001 0.000000 -0.000000 0.000001 0.000000 -0.000000 0.000001 0.000000 -0.000000 0.000001 0.000000 0.000001 -0.000001 -0.000000 
-1.160877 83.509804 -0.337627 -24.610398 -5.493049 -2.651913 0.000001 -0.000000 0.000000 4.890932 21.726419 9.841456 42.125830 5.460486 -9.758308 -21.097462 29.529517 6.633332 0.000000 0.000000 0.000001 -0.000002 0.000000 -0.000000 0.000001 0.000002 0.000001 24.914251 -14.077664 -0.148028 28.936779 -10.204178 0.482120 -26.365531 -26.637384 0.975949 0.000000 0.000001 -0.000000 0.000002 0.000002 -0.000001 0.000000 -0.000002 -0.000000 11.159885 -4.709244 -1.063299 3.545657 -2.400650 -0.151373 3.557023 -2.388378 -0.108336 1.621907 0.619889 -1.221550 -6.707821 0.616425 4.081620 -0.000001 0.000000 0.000000 -0.000001 0.000000 0.000000 -0.000001 0.000000 0.000000 -0.000001 0.000000 0.000000 -0.000001 0.000000 0.000000 -0.000001 0.000000 0.000000 -0.000001 0.000000 0.000000 -0.000001 0.000000 0.000000 -0.000001 0.000000 0.000000 -0.000001 0.000000 0.000000 -0.000001 0.000000 0.000000 -0.000001 0.000000 0.000000 -0.000001 0.000000 0.000000 -0.000001 0.000000 0.000000 -0.000001 0.000000 0.000000 -0.000001 0.000000 0.000000 -0.000001 0.000000 0.000000 -0.000001 0.000000 0.000000 -0.000001 0.000000 0.000000 0.467436 -15.512259 -10.880577 -20.273861 3.119685 -36.916927 0.000026 -67.186665 0.000024 -41.632930 -11.516114 -7.742028 -22.783315 -14.798010 12.273496 3.121079 10.436157 14.802468 -0.000006 0.000002 -0.000002 1.966046 -2.898944 26.024735 3.255056 5.245427 -63.621498 0.000001 -0.000001 -0.000001 -0.901194 3.860910 20.811098 2.977372 5.098885 -60.541964 0.000001 0.000000 -0.000001 -6.204289 13.462538 27.760037 3.748897 5.461632 -68.910516 0.000001 0.000001 0.000001 -10.237999 21.423469 28.810120 0.279212 1.788714 -17.742618 -0.000001 -0.000000 0.000001 0.000004 0.000002 -0.000000 0.054410 14.630958 15.046420 -11.904869 -6.587384 61.267371 0.000006 39.465714 0.000003 -2.208373 -4.161589 24.213813 -20.073106 16.089486 -24.921344 8.794299 -40.952756 -1.386090 0.000000 -0.000001 -0.000001 1.092561 -5.215345 38.900335 3.089337 -4.385907 70.307140 -0.000001 0.000002 -0.000000 2.965379 -6.600167 70.564385 0.642082 -2.361637 30.415577 -0.000001 0.000000 0.000000 5.938363 -7.194023 80.713711 0.323251 -1.706380 21.450626 -0.000004 0.000000 -0.000001 1.923060 -22.482473 97.283580 1.111358 -3.021258 40.383999 -0.000001 0.000002 -0.000002 -0.000000 0.000002 0.000001 0.000000 0.000002 0.000000 0.000000 0.000002 0.000000 0.000000 0.000002 0.000000 0.000000 0.000002 0.000000 0.000000 0.000002 0.000000 0.000000 0.000002 0.000000 -0.000000 0.000001 0.000000 -0.000000 0.000001 0.000000 0.000002 -0.000001 -0.000000 0.000001 -0.000000 0.000000 
